<svg width="915" height="771" viewBox="0 0 915 771" fill="none" xmlns="http://www.w3.org/2000/svg">
<g id="Group 2">
<rect id="Rectangle 1" width="915" height="771" rx="38" fill="#277CC6"/>
<g id="Group 1" filter="url(#filter0_i)">
<circle id="Ellipse 1" cx="84" cy="75" r="50" fill="#2468A4"/>
<circle id="Ellipse 13" cx="334" cy="75" r="50" fill="#2468A4"/>
<circle id="Ellipse 25" cx="709" cy="75" r="50" fill="#2468A4"/>
<circle id="Ellipse 7" cx="209" cy="75" r="50" fill="#2468A4"/>
<circle id="Ellipse 26" cx="584" cy="75" r="50" fill="#2468A4"/>
<circle id="Ellipse 14" cx="459" cy="75" r="50" fill="#2468A4"/>
<circle id="Ellipse 27" cx="834" cy="75" r="50" fill="#2468A4"/>
<circle id="Ellipse 2" cx="84" cy="199" r="50" fill="#2468A4"/>
<circle id="Ellipse 15" cx="334" cy="199" r="50" fill="#2468A4"/>
<circle id="Ellipse 28" cx="709" cy="199" r="50" fill="#2468A4"/>
<circle id="Ellipse 8" cx="209" cy="199" r="50" fill="#2468A4"/>
<circle id="Ellipse 29" cx="584" cy="199" r="50" fill="#2468A4"/>
<circle id="Ellipse 16" cx="459" cy="199" r="50" fill="#2468A4"/>
<circle id="Ellipse 30" cx="834" cy="199" r="50" fill="#2468A4"/>
<circle id="Ellipse 3" cx="84" cy="323" r="50" fill="#2468A4"/>
<circle id="Ellipse 17" cx="334" cy="323" r="50" fill="#2468A4"/>
<circle id="Ellipse 31" cx="709" cy="323" r="50" fill="#2468A4"/>
<circle id="Ellipse 9" cx="209" cy="323" r="50" fill="#2468A4"/>
<circle id="Ellipse 32" cx="584" cy="323" r="50" fill="#2468A4"/>
<circle id="Ellipse 18" cx="459" cy="323" r="50" fill="#2468A4"/>
<circle id="Ellipse 33" cx="834" cy="323" r="50" fill="#2468A4"/>
<circle id="Ellipse 4" cx="84" cy="447" r="50" fill="#2468A4"/>
<circle id="Ellipse 19" cx="334" cy="447" r="50" fill="#2468A4"/>
<circle id="Ellipse 34" cx="709" cy="447" r="50" fill="#2468A4"/>
<circle id="Ellipse 10" cx="209" cy="447" r="50" fill="#2468A4"/>
<circle id="Ellipse 35" cx="584" cy="447" r="50" fill="#2468A4"/>
<circle id="Ellipse 20" cx="459" cy="447" r="50" fill="#2468A4"/>
<circle id="Ellipse 36" cx="834" cy="447" r="50" fill="#2468A4"/>
<circle id="Ellipse 5" cx="84" cy="571" r="50" fill="#2468A4"/>
<circle id="Ellipse 21" cx="334" cy="571" r="50" fill="#2468A4"/>
<circle id="Ellipse 37" cx="709" cy="571" r="50" fill="#2468A4"/>
<circle id="Ellipse 11" cx="209" cy="571" r="50" fill="#2468A4"/>
<circle id="Ellipse 38" cx="584" cy="571" r="50" fill="#2468A4"/>
<circle id="Ellipse 22" cx="459" cy="571" r="50" fill="#2468A4"/>
<circle id="Ellipse 39" cx="834" cy="571" r="50" fill="#2468A4"/>
<circle id="Ellipse 6" cx="84" cy="695" r="50" fill="#2468A4"/>
<circle id="Ellipse 23" cx="334" cy="695" r="50" fill="#2468A4"/>
<circle id="Ellipse 40" cx="709" cy="695" r="50" fill="#2468A4"/>
<circle id="Ellipse 12" cx="209" cy="695" r="50" fill="#2468A4"/>
<circle id="Ellipse 41" cx="584" cy="695" r="50" fill="#2468A4"/>
<circle id="Ellipse 24" cx="459" cy="695" r="50" fill="#2468A4"/>
<circle id="Ellipse 42" cx="834" cy="695" r="50" fill="#2468A4"/>
</g>
</g>
<defs>
<filter id="filter0_i" x="34" y="25" width="854" height="724" filterUnits="userSpaceOnUse" color-interpolation-filters="sRGB">
<feFlood flood-opacity="0" result="BackgroundImageFix"/>
<feBlend mode="normal" in="SourceGraphic" in2="BackgroundImageFix" result="shape"/>
<feColorMatrix in="SourceAlpha" type="matrix" values="0 0 0 0 0 0 0 0 0 0 0 0 0 0 0 0 0 0 127 0" result="hardAlpha"/>
<feOffset dx="6" dy="6"/>
<feGaussianBlur stdDeviation="2"/>
<feComposite in2="hardAlpha" operator="arithmetic" k2="-1" k3="1"/>
<feColorMatrix type="matrix" values="0 0 0 0 0 0 0 0 0 0 0 0 0 0 0 0 0 0 0.41 0"/>
<feBlend mode="normal" in2="shape" result="effect1_innerShadow"/>
</filter>
</defs>
</svg>
